solid OBJECT
  facet normal 0.052001672493288444 -0.8320273798014497 -0.552291829849614
    outer loop
      vertex -0.69099700450897217 -0.13499900698661804 0.096499599516391754
      vertex -0.77099698781967163 -0.13999900221824646 0.096499599516391754
      vertex -0.45941999554634094 -0.02056179940700531 -0.054095599800348282
    endloop
  endfacet
  facet normal 0.052001581157507047 -0.83202732162487381 -0.5522919260924043
    outer loop
      vertex -0.69099700450897217 -0.13499900698661804 0.096499599516391754
      vertex -0.45941999554634094 -0.02056179940700531 -0.054095599800348282
      vertex -0.35776400566101074 -0.029767699539661407 -0.030655400827527046
    endloop
  endfacet
  facet normal -0 0 1
    outer loop
      vertex -0.77099698781967163 -0.13999900221824646 0.096499599516391754
      vertex -0.69099700450897217 -0.13499900698661804 0.096499599516391754
      vertex -0.77099698781967163 -0.12999899685382843 0.096499599516391754
    endloop
  endfacet
  facet normal 0 0 1
    outer loop
      vertex -0.77099698781967163 -0.13999900221824646 0.096499599516391754
      vertex -0.77099698781967163 -0.12999899685382843 0.096499599516391754
      vertex -0.85099697113037109 -0.13499900698661804 0.096499599516391754
    endloop
  endfacet
  facet normal 0.044341593656816808 0.70946391273331932 0.70334541983374232
    outer loop
      vertex -0.46535301208496094 -0.0026479100342839956 -0.051228299736976624
      vertex -0.77099698781967163 -0.12999899685382843 0.096499599516391754
      vertex -0.69099700450897217 -0.13499900698661804 0.096499599516391754
    endloop
  endfacet
  facet normal 0.044341523576762784 0.70946397125471872 0.70334536522136493
    outer loop
      vertex -0.46535301208496094 -0.0026479100342839956 -0.051228299736976624
      vertex -0.69099700450897217 -0.13499900698661804 0.096499599516391754
      vertex -0.35776400566101074 -0.029767699539661407 -0.030655400827527046
    endloop
  endfacet
  facet normal -0.050349826238223955 0.80560394450123718 0.59031108714120228
    outer loop
      vertex -0.46535301208496094 -0.0026479100342839956 -0.051228299736976624
      vertex -0.61582601070404053 -0.0067241601645946503 -0.058499798178672791
      vertex -0.77099698781967163 -0.12999899685382843 0.096499599516391754
    endloop
  endfacet
  facet normal -0.050350373576751505 0.80560417656199435 0.59031072376042126
    outer loop
      vertex -0.77099698781967163 -0.12999899685382843 0.096499599516391754
      vertex -0.61582601070404053 -0.0067241601645946503 -0.058499798178672791
      vertex -0.85099697113037109 -0.13499900698661804 0.096499599516391754
    endloop
  endfacet
  facet normal -0.050349781718705945 0.80560509488511201 0.59030952099388334
    outer loop
      vertex -0.61582601070404053 -0.0067241601645946503 -0.058499798178672791
      vertex -0.46535301208496094 -0.0026479100342839956 -0.051228299736976624
      vertex -0.50823897123336792 -4.1874500311678275e-08 -0.058499798178672791
    endloop
  endfacet
  facet normal -0.05035242581914369 0.80559594426039893 0.59032178327190665
    outer loop
      vertex -0.50823897123336792 -4.1874500311678275e-08 -0.058499798178672791
      vertex -0.46535301208496094 -0.0026479100342839956 -0.051228299736976624
      vertex -0.49080100655555725 -4.0415198299115218e-08 -0.057012401521205902
    endloop
  endfacet
  facet normal 0 0 -1
    outer loop
      vertex -0.49668800830841064 -4.0864801320594779e-08 -0.058499798178672791
      vertex -0.50823897123336792 -4.1874500311678275e-08 -0.058499798178672791
      vertex -0.48214098811149597 0.015079399570822716 -0.058499798178672791
    endloop
  endfacet
  facet normal 0 -0 -1
    outer loop
      vertex -0.48214098811149597 0.015079399570822716 -0.058499798178672791
      vertex -0.50823897123336792 -4.1874500311678275e-08 -0.058499798178672791
      vertex -0.61582601070404053 0.0067240698263049126 -0.058499798178672791
    endloop
  endfacet
  facet normal 0 0 -1
    outer loop
      vertex -0.50823897123336792 -4.1874500311678275e-08 -0.058499798178672791
      vertex -0.49668800830841064 -4.0864801320594779e-08 -0.058499798178672791
      vertex -0.48214098811149597 -0.015079399570822716 -0.058499798178672791
    endloop
  endfacet
  facet normal 0 0 -1
    outer loop
      vertex -0.50823897123336792 -4.1874500311678275e-08 -0.058499798178672791
      vertex -0.48214098811149597 -0.015079399570822716 -0.058499798178672791
      vertex -0.61582601070404053 -0.0067241601645946503 -0.058499798178672791
    endloop
  endfacet
  facet normal -0.045891129130753557 -0.73427372098480725 -0.6773006030842067
    outer loop
      vertex -0.61582601070404053 -0.0067241601645946503 -0.058499798178672791
      vertex -0.45941999554634094 -0.02056179940700531 -0.054095599800348282
      vertex -0.77099698781967163 -0.13999900221824646 0.096499599516391754
    endloop
  endfacet
  facet normal -0.045892041998648207 -0.73427321905466536 -0.67730108538248612
    outer loop
      vertex -0.61582601070404053 -0.0067241601645946503 -0.058499798178672791
      vertex -0.77099698781967163 -0.13999900221824646 0.096499599516391754
      vertex -0.85099697113037109 -0.13499900698661804 0.096499599516391754
    endloop
  endfacet
  facet normal -0.045892325441343855 -0.73428375479908958 -0.67728964402516612
    outer loop
      vertex -0.45941999554634094 -0.02056179940700531 -0.054095599800348282
      vertex -0.61582601070404053 -0.0067241601645946503 -0.058499798178672791
      vertex -0.48214098811149597 -0.015079399570822716 -0.058499798178672791
    endloop
  endfacet
  facet normal -0.11406901937585238 -0.093652697233763488 0.98904875062833597
    outer loop
      vertex -0.27899900078773499 -2.4237900575485583e-08 -0.0034999900963157415
      vertex -0.10100000351667404 -0.16399900615215302 0.0014999900013208389
      vertex 0.052737198770046234 -0.11889500170946121 0.023501699790358543
    endloop
  endfacet
  facet normal -0.11406942040394054 -0.093653851492849743 0.98904859507976883
    outer loop
      vertex -0.27899900078773499 -2.4237900575485583e-08 -0.0034999900963157415
      vertex 0.052737198770046234 -0.11889500170946121 0.023501699790358543
      vertex 0.45799800753593445 3.6476901499327141e-08 0.081499703228473663
    endloop
  endfacet
  facet normal -0 0 -1
    outer loop
      vertex -0.31099900603294373 -0.22599899768829346 -0.081499703228473663
      vertex -0.3658440113067627 -0.22999800741672516 -0.081499703228473663
      vertex -0.50899797677993774 -4.0935500322802909e-08 -0.081499703228473663
    endloop
  endfacet
  facet normal 0 0 -1
    outer loop
      vertex -0.50899797677993774 -4.0935500322802909e-08 -0.081499703228473663
      vertex -0.3658440113067627 -0.22999800741672516 -0.081499703228473663
      vertex -0.58772200345993042 -4.7817799497806845e-08 -0.081499703228473663
    endloop
  endfacet
  facet normal 0 0 -1
    outer loop
      vertex -0.50899797677993774 -4.0935500322802909e-08 -0.081499703228473663
      vertex -0.58772200345993042 -4.7817799497806845e-08 -0.081499703228473663
      vertex -0.3658440113067627 0.22999800741672516 -0.081499703228473663
    endloop
  endfacet
  facet normal 0 0 -1
    outer loop
      vertex -0.3658440113067627 0.22999800741672516 -0.081499703228473663
      vertex -0.31853899359703064 0.2322780042886734 -0.081499703228473663
      vertex -0.31099900603294373 0.22599899768829346 -0.081499703228473663
    endloop
  endfacet
  facet normal -0 0 -1
    outer loop
      vertex -0.50899797677993774 -4.0935500322802909e-08 -0.081499703228473663
      vertex -0.3658440113067627 0.22999800741672516 -0.081499703228473663
      vertex -0.31099900603294373 0.22599899768829346 -0.081499703228473663
    endloop
  endfacet
  facet normal 0 0 -1
    outer loop
      vertex -0.3658440113067627 -0.22999800741672516 -0.081499703228473663
      vertex -0.31099900603294373 -0.22599899768829346 -0.081499703228473663
      vertex -0.31853899359703064 -0.2322780042886734 -0.081499703228473663
    endloop
  endfacet
  facet normal 0.27763901181752665 -0.66502472738259411 0.69329552940048123
    outer loop
      vertex 0.3269990086555481 -0.13999900221824646 -0.0074999700300395489
      vertex 0.30102500319480896 -0.22790899872779846 -0.081423602998256683
      vertex 0.4039129912853241 -0.18494899570941925 -0.081418201327323914
    endloop
  endfacet
  facet normal 0.38793174397529417 -0.55109191852649764 0.7387872896518124
    outer loop
      vertex 0.49294298887252808 -0.119998998939991 -0.079717099666595459
      vertex 0.43147200345993042 -0.085933797061443329 -0.022028500214219093
      vertex 0.3269990086555481 -0.13999900221824646 -0.0074999700300395489
    endloop
  endfacet
  facet normal 0.38792990263754712 -0.5511030014281787 0.7387799892095589
    outer loop
      vertex 0.49294298887252808 -0.119998998939991 -0.079717099666595459
      vertex 0.3269990086555481 -0.13999900221824646 -0.0074999700300395489
      vertex 0.4039129912853241 -0.18494899570941925 -0.081418201327323914
    endloop
  endfacet
  facet normal 0.11551602183530833 0.04345035580562466 0.99235483335332697
    outer loop
      vertex 0.3269990086555481 -0.13999900221824646 -0.0074999700300395489
      vertex 0.43147200345993042 -0.085933797061443329 -0.022028500214219093
      vertex 0.052737198770046234 -0.11889500170946121 0.023501699790358543
    endloop
  endfacet
  facet normal 0.11551569408439745 0.043445743768450014 0.99235507343319718
    outer loop
      vertex 0.3269990086555481 -0.13999900221824646 -0.0074999700300395489
      vertex 0.052737198770046234 -0.11889500170946121 0.023501699790358543
      vertex 0.15599900484085083 -0.16499899327754974 0.01349989976733923
    endloop
  endfacet
  facet normal 0 -1 0
    outer loop
      vertex 0.1938450038433075 -0.24999900162220001 -0.074147500097751617
      vertex 0.11648499965667725 -0.24999900162220001 -0.07807689905166626
      vertex 0.2193329930305481 -0.24999900162220001 -0.080693796277046204
    endloop
  endfacet
  facet normal 0.18601409324179194 -0.6639793913709644 0.72424452013810747
    outer loop
      vertex 0.30102500319480896 -0.22790899872779846 -0.081423602998256683
      vertex 0.15599900484085083 -0.16499899327754974 0.01349989976733923
      vertex 0.2193329930305481 -0.24999900162220001 -0.080693796277046204
    endloop
  endfacet
  facet normal 0.18601384173924704 -0.66397951983559544 0.7242444669587047
    outer loop
      vertex 0.2193329930305481 -0.24999900162220001 -0.080693796277046204
      vertex 0.15599900484085083 -0.16499899327754974 0.01349989976733923
      vertex 0.1938450038433075 -0.24999900162220001 -0.074147500097751617
    endloop
  endfacet
  facet normal 0.18601468824272271 -0.66397871910009154 0.72424498364860224
    outer loop
      vertex 0.15599900484085083 -0.16499899327754974 0.01349989976733923
      vertex 0.30102500319480896 -0.22790899872779846 -0.081423602998256683
      vertex 0.3269990086555481 -0.13999900221824646 -0.0074999700300395489
    endloop
  endfacet
  facet normal -0.045567710455452479 -0.30820325408522764 0.95022857141591155
    outer loop
      vertex 0.052737198770046234 -0.11889500170946121 0.023501699790358543
      vertex -0.10100000351667404 -0.16399900615215302 0.0014999900013208389
      vertex 0.15599900484085083 -0.16499899327754974 0.01349989976733923
    endloop
  endfacet
  facet normal -0.034943842589326306 -0.7249255273336711 0.68794033730047499
    outer loop
      vertex -0.31853899359703064 -0.2322780042886734 -0.081499703228473663
      vertex -0.15652100741863251 -0.23059800267219543 -0.071499697864055634
      vertex -0.10100000351667404 -0.16399900615215302 0.0014999900013208389
    endloop
  endfacet
  facet normal -0.03494303140580849 -0.72492532152113776 0.68794059538135099
    outer loop
      vertex 0.11648499965667725 -0.24999900162220001 -0.07807689905166626
      vertex 0.1938450038433075 -0.24999900162220001 -0.074147500097751617
      vertex 0.15599900484085083 -0.16499899327754974 0.01349989976733923
    endloop
  endfacet
  facet normal -0.034940061136431805 -0.72493091160501733 0.68793485558394352
    outer loop
      vertex -0.31853899359703064 -0.2322780042886734 -0.081499703228473663
      vertex -0.10100000351667404 -0.16399900615215302 0.0014999900013208389
      vertex -0.3658440113067627 -0.22999800741672516 -0.081499703228473663
    endloop
  endfacet
  facet normal -0.03494281138954599 -0.72492537505901433 0.68794055014059319
    outer loop
      vertex 0.11648499965667725 -0.24999900162220001 -0.07807689905166626
      vertex 0.15599900484085083 -0.16499899327754974 0.01349989976733923
      vertex -0.10177099704742432 -0.23323699831962585 -0.071499697864055634
    endloop
  endfacet
  facet normal -0.034942277082964879 -0.72492626243808334 0.68793964219240067
    outer loop
      vertex 0.15599900484085083 -0.16499899327754974 0.01349989976733923
      vertex -0.10100000351667404 -0.16399900615215302 0.0014999900013208389
      vertex -0.10177099704742432 -0.23323699831962585 -0.071499697864055634
    endloop
  endfacet
  facet normal -0.034942043977009958 -0.72492626958110529 0.68793964650536854
    outer loop
      vertex -0.10100000351667404 -0.16399900615215302 0.0014999900013208389
      vertex -0.15652100741863251 -0.23059800267219543 -0.071499697864055634
      vertex -0.10177099704742432 -0.23323699831962585 -0.071499697864055634
    endloop
  endfacet
  facet normal -0.23839270528179876 -0.22997403785945428 0.94354695695500157
    outer loop
      vertex -0.45941999554634094 -0.02056179940700531 -0.054095599800348282
      vertex -0.3658440113067627 -0.22999800741672516 -0.081499703228473663
      vertex -0.35776400566101074 -0.029767699539661407 -0.030655400827527046
    endloop
  endfacet
  facet normal -0.23838971843609538 -0.22997433182059648 0.94354763994598034
    outer loop
      vertex -0.35776400566101074 -0.029767699539661407 -0.030655400827527046
      vertex -0.3658440113067627 -0.22999800741672516 -0.081499703228473663
      vertex -0.10100000351667404 -0.16399900615215302 0.0014999900013208389
    endloop
  endfacet
  facet normal -0.2383888235583847 -0.22997245639535271 0.94354832314086423
    outer loop
      vertex -0.35776400566101074 -0.029767699539661407 -0.030655400827527046
      vertex -0.10100000351667404 -0.16399900615215302 0.0014999900013208389
      vertex -0.27899900078773499 -2.4237900575485583e-08 -0.0034999900963157415
    endloop
  endfacet
  facet normal -0.23838941802607774 -0.22998605884115914 0.94354485749851802
    outer loop
      vertex -0.27899900078773499 -2.4237900575485583e-08 -0.0034999900963157415
      vertex -0.49080100655555725 -4.0415198299115218e-08 -0.057012401521205902
      vertex -0.46535301208496094 -0.0026479100342839956 -0.051228299736976624
    endloop
  endfacet
  facet normal -0.23839071794960964 -0.22996799842087676 0.94354893105644777
    outer loop
      vertex -0.35776400566101074 -0.029767699539661407 -0.030655400827527046
      vertex -0.27899900078773499 -2.4237900575485583e-08 -0.0034999900963157415
      vertex -0.46535301208496094 -0.0026479100342839956 -0.051228299736976624
    endloop
  endfacet
  facet normal -0.23838857659555523 -0.22997238244856369 0.94354840355949754
    outer loop
      vertex -0.3658440113067627 -0.22999800741672516 -0.081499703228473663
      vertex -0.45941999554634094 -0.02056179940700531 -0.054095599800348282
      vertex -0.58772200345993042 -4.7817799497806845e-08 -0.081499703228473663
    endloop
  endfacet
  facet normal -0.23839120176546755 -0.2299979542412178 0.94354150728289143
    outer loop
      vertex -0.58772200345993042 -4.7817799497806845e-08 -0.081499703228473663
      vertex -0.45941999554634094 -0.02056179940700531 -0.054095599800348282
      vertex -0.48214098811149597 -0.015079399570822716 -0.058499798178672791
    endloop
  endfacet
  facet normal -0.23838911270895052 -0.22997338977796922 0.94354802259125625
    outer loop
      vertex -0.58772200345993042 -4.7817799497806845e-08 -0.081499703228473663
      vertex -0.48214098811149597 -0.015079399570822716 -0.058499798178672791
      vertex -0.49668800830841064 -4.0864801320594779e-08 -0.058499798178672791
    endloop
  endfacet
  facet normal -0.75216439918195943 -0.65897550531354454 -2.8810702437379885e-08
    outer loop
      vertex -0.50899797677993774 -4.0935500322802909e-08 -0.081499703228473663
      vertex -0.50899797677993774 -4.0716898297432635e-08 -0.086499698460102081
      vertex -0.31099900603294373 -0.22599899768829346 -0.086499698460102081
    endloop
  endfacet
  facet normal -0.75216439886602382 -0.65897550567415875 -0
    outer loop
      vertex -0.50899797677993774 -4.0935500322802909e-08 -0.081499703228473663
      vertex -0.31099900603294373 -0.22599899768829346 -0.086499698460102081
      vertex -0.31099900603294373 -0.22599899768829346 -0.081499703228473663
    endloop
  endfacet
  facet normal -0.63992474841581315 0.76843758130700401 0
    outer loop
      vertex -0.31853899359703064 -0.2322780042886734 -0.081499703228473663
      vertex -0.31099900603294373 -0.22599899768829346 -0.081499703228473663
      vertex -0.31099900603294373 -0.22599899768829346 -0.086499698460102081
    endloop
  endfacet
  facet normal -0.6399597174006072 0.76840845396703739 -8.9311379249645928e-05
    outer loop
      vertex -0.31853899359703064 -0.2322780042886734 -0.081499703228473663
      vertex -0.31099900603294373 -0.22599899768829346 -0.086499698460102081
      vertex -0.64599698781967163 -0.50499802827835083 -0.086499698460102081
    endloop
  endfacet
  facet normal -0.63996052515428381 0.76840778642869911 -0
    outer loop
      vertex -0.31853899359703064 -0.2322780042886734 -0.081499703228473663
      vertex -0.64599698781967163 -0.50499802827835083 -0.086499698460102081
      vertex -0.64599698781967163 -0.50499802827835083 -0.081499703228473663
    endloop
  endfacet
  facet normal -0.67267657462428321 -0.73993663644378427 -0
    outer loop
      vertex -0.61173897981643677 -0.53614199161529541 -0.090977996587753296
      vertex -0.61173897981643677 -0.53614199161529541 -0.077021397650241852
      vertex -0.64599698781967163 -0.50499802827835083 -0.081499703228473663
    endloop
  endfacet
  facet normal -0.67267657462428321 -0.73993663644378427 0
    outer loop
      vertex -0.61173897981643677 -0.53614199161529541 -0.090977996587753296
      vertex -0.64599698781967163 -0.50499802827835083 -0.081499703228473663
      vertex -0.64599698781967163 -0.50499802827835083 -0.086499698460102081
    endloop
  endfacet
  facet normal -0.67268348357248431 -0.73993035545839525 0
    outer loop
      vertex -0.61173897981643677 -0.53614199161529541 -0.077021397650241852
      vertex -0.61173897981643677 -0.53614199161529541 -0.090977996587753296
      vertex -0.59099799394607544 -0.55499798059463501 -0.089298799633979797
    endloop
  endfacet
  facet normal -0.67268348357248431 -0.73993035545839525 -0
    outer loop
      vertex -0.61173897981643677 -0.53614199161529541 -0.077021397650241852
      vertex -0.59099799394607544 -0.55499798059463501 -0.089298799633979797
      vertex -0.59099799394607544 -0.55499798059463501 -0.078700698912143707
    endloop
  endfacet
  facet normal 0 -1 0
    outer loop
      vertex -0.48099800944328308 -0.55499798059463501 -0.081499703228473663
      vertex -0.59099799394607544 -0.55499798059463501 -0.078700698912143707
      vertex -0.59099799394607544 -0.55499798059463501 -0.089298799633979797
    endloop
  endfacet
  facet normal -0 -1 0
    outer loop
      vertex -0.48099800944328308 -0.55499798059463501 -0.081499703228473663
      vertex -0.59099799394607544 -0.55499798059463501 -0.089298799633979797
      vertex -0.48099800944328308 -0.55499798059463501 -0.086499698460102081
    endloop
  endfacet
  facet normal 0.38461542396895776 -0.92307690667959974 0
    outer loop
      vertex 0.61099797487258911 -0.099999599158763885 -0.081499703228473663
      vertex -0.48099800944328308 -0.55499798059463501 -0.081499703228473663
      vertex -0.48099800944328308 -0.55499798059463501 -0.086499698460102081
    endloop
  endfacet
  facet normal 0.38461547327585438 -0.92307688604843119 -1.2646028333327648e-05
    outer loop
      vertex 0.61099797487258911 -0.099999599158763885 -0.081499703228473663
      vertex -0.48099800944328308 -0.55499798059463501 -0.086499698460102081
      vertex 0.85099697113037109 7.8177599505124817e-08 -0.086499698460102081
    endloop
  endfacet
  facet normal 0.38461569707659832 -0.92307679288468769 -4.0356673900991527e-08
    outer loop
      vertex 0.61099797487258911 -0.099999599158763885 -0.081499703228473663
      vertex 0.85099697113037109 7.8177599505124817e-08 -0.086499698460102081
      vertex 0.85099697113037109 7.7959001032468223e-08 -0.081499703228473663
    endloop
  endfacet
  facet normal 0.14122561952581031 -0.7792311443884008 0.61061784121060081
    outer loop
      vertex 0.43147200345993042 -0.085933797061443329 -0.022028500214219093
      vertex 0.61099797487258911 -0.099999599158763885 -0.081499703228473663
      vertex 0.45799800753593445 3.6476901499327141e-08 0.081499703228473663
    endloop
  endfacet
  facet normal 0.1412227758932853 -0.77923111071691997 0.61061854185724684
    outer loop
      vertex 0.43147200345993042 -0.085933797061443329 -0.022028500214219093
      vertex 0.45799800753593445 3.6476901499327141e-08 0.081499703228473663
      vertex 0.052737198770046234 -0.11889500170946121 0.023501699790358543
    endloop
  endfacet
  facet normal 0.14122725595080918 -0.77922762844851423 0.61062194952286875
    outer loop
      vertex 0.61099797487258911 -0.099999599158763885 -0.081499703228473663
      vertex 0.43147200345993042 -0.085933797061443329 -0.022028500214219093
      vertex 0.49294298887252808 -0.119998998939991 -0.079717099666595459
    endloop
  endfacet
  facet normal 0.28396550740486881 -0.67520429413699823 0.68078098664934339
    outer loop
      vertex 0.45799800753593445 3.6476901499327141e-08 0.081499703228473663
      vertex 0.61099797487258911 -0.099999599158763885 -0.081499703228473663
      vertex 0.71795397996902466 -0.054990600794553757 -0.081472598016262054
    endloop
  endfacet
  facet normal 0.5260919975604601 -0.031634305199177287 0.84983909114455913
    outer loop
      vertex 0.71795302629470825 -0.054973401129245758 -0.081471502780914307
      vertex 0.62599700689315796 5.5709900692590963e-08 -0.022499900311231613
      vertex 0.45799800753593445 3.6476901499327141e-08 0.081499703228473663
    endloop
  endfacet
  facet normal 0.52722664515826068 -0.024852105222240489 0.84936119378106034
    outer loop
      vertex 0.71795302629470825 -0.054973401129245758 -0.081471502780914307
      vertex 0.45799800753593445 3.6476901499327141e-08 0.081499703228473663
      vertex 0.71795397996902466 -0.054990600794553757 -0.081472598016262054
    endloop
  endfacet
  facet normal 0.21621447025062546 -0.52284799642977431 0.82454913466913049
    outer loop
      vertex 0.62599700689315796 5.5709900692590963e-08 -0.022499900311231613
      vertex 0.71795302629470825 -0.054973401129245758 -0.081471502780914307
      vertex 0.85099697113037109 7.7959001032468223e-08 -0.081499703228473663
    endloop
  endfacet
  facet normal -0.062204160543691996 0.074689233837525293 0.99526486965019412
    outer loop
      vertex -0.21767899394035339 -0.28153198957443237 -0.071499697864055634
      vertex -0.31853899359703064 -0.2322780042886734 -0.081499703228473663
      vertex -0.64599698781967163 -0.50499802827835083 -0.081499703228473663
    endloop
  endfacet
  facet normal -0.062204064161260682 0.07468904820809498 0.99526488960456683
    outer loop
      vertex -0.21767899394035339 -0.28153198957443237 -0.071499697864055634
      vertex -0.64599698781967163 -0.50499802827835083 -0.081499703228473663
      vertex -0.61173897981643677 -0.53614199161529541 -0.077021397650241852
    endloop
  endfacet
  facet normal -0.062203791284096512 0.074689983257243048 0.99526483648871966
    outer loop
      vertex -0.31853899359703064 -0.2322780042886734 -0.081499703228473663
      vertex -0.21767899394035339 -0.28153198957443237 -0.071499697864055634
      vertex -0.15652100741863251 -0.23059800267219543 -0.071499697864055634
    endloop
  endfacet
  facet normal 0 -0 -1
    outer loop
      vertex -0.15099899470806122 -0.22599899768829346 -0.096499599516391754
      vertex -0.34899899363517761 -2.6292299892816118e-08 -0.096499599516391754
      vertex 0.45799800753593445 4.4257500775302105e-08 -0.096499599516391754
    endloop
  endfacet
  facet normal -0 0 -1
    outer loop
      vertex -0.15099899470806122 -0.22599899768829346 -0.096499599516391754
      vertex 0.45799800753593445 4.4257500775302105e-08 -0.096499599516391754
      vertex -0.21767899394035339 -0.28153198957443237 -0.096499599516391754
    endloop
  endfacet
  facet normal 0 -0 -1
    outer loop
      vertex -0.21767899394035339 0.28153198957443237 -0.096499599516391754
      vertex 0.45799800753593445 4.4257500775302105e-08 -0.096499599516391754
      vertex -0.15099899470806122 0.22599899768829346 -0.096499599516391754
    endloop
  endfacet
  facet normal 0 -0 -1
    outer loop
      vertex 0.45799800753593445 4.4257500775302105e-08 -0.096499599516391754
      vertex -0.34899899363517761 -2.6292299892816118e-08 -0.096499599516391754
      vertex -0.15099899470806122 0.22599899768829346 -0.096499599516391754
    endloop
  endfacet
  facet normal 0.025390129857634593 -0.060935520486276082 -0.99781872283941386
    outer loop
      vertex -0.21767899394035339 -0.28153198957443237 -0.096499599516391754
      vertex -0.48099800944328308 -0.55499798059463501 -0.086499698460102081
      vertex -0.61173897981643677 -0.53614199161529541 -0.090977996587753296
    endloop
  endfacet
  facet normal 0.025390879775736008 -0.060930390677600386 -0.99781901701465348
    outer loop
      vertex -0.61173897981643677 -0.53614199161529541 -0.090977996587753296
      vertex -0.48099800944328308 -0.55499798059463501 -0.086499698460102081
      vertex -0.59099799394607544 -0.55499798059463501 -0.089298799633979797
    endloop
  endfacet
  facet normal 0.025389591951470714 -0.060935004192602289 -0.99781876805589576
    outer loop
      vertex -0.48099800944328308 -0.55499798059463501 -0.086499698460102081
      vertex -0.21767899394035339 -0.28153198957443237 -0.096499599516391754
      vertex 0.85099697113037109 7.8177599505124817e-08 -0.086499698460102081
    endloop
  endfacet
  facet normal 0.025389611408052626 -0.060935078226594691 -0.99781876303969486
    outer loop
      vertex 0.85099697113037109 7.8177599505124817e-08 -0.086499698460102081
      vertex -0.21767899394035339 -0.28153198957443237 -0.096499599516391754
      vertex 0.45799800753593445 4.4257500775302105e-08 -0.096499599516391754
    endloop
  endfacet
  facet normal -0.062285120387211665 -0.054568347990568131 -0.9965655318020642
    outer loop
      vertex -0.31099900603294373 -0.22599899768829346 -0.086499698460102081
      vertex -0.50899797677993774 -4.0716898297432635e-08 -0.086499698460102081
      vertex -0.34899899363517761 -2.6292299892816118e-08 -0.096499599516391754
    endloop
  endfacet
  facet normal -0.062284726814339476 -0.054568283060042182 -0.99656555995556162
    outer loop
      vertex -0.31099900603294373 -0.22599899768829346 -0.086499698460102081
      vertex -0.34899899363517761 -2.6292299892816118e-08 -0.096499599516391754
      vertex -0.15099899470806122 -0.22599899768829346 -0.096499599516391754
    endloop
  endfacet
  facet normal -0.062203737282209202 0.07468888477877933 -0.99526492229889629
    outer loop
      vertex -0.21767899394035339 -0.28153198957443237 -0.096499599516391754
      vertex -0.64599698781967163 -0.50499802827835083 -0.086499698460102081
      vertex -0.31099900603294373 -0.22599899768829346 -0.086499698460102081
    endloop
  endfacet
  facet normal -0.062203436591409693 0.07468938667423769 -0.99526490342744656
    outer loop
      vertex -0.21767899394035339 -0.28153198957443237 -0.096499599516391754
      vertex -0.31099900603294373 -0.22599899768829346 -0.086499698460102081
      vertex -0.15099899470806122 -0.22599899768829346 -0.096499599516391754
    endloop
  endfacet
  facet normal -0.062203832053881455 0.074689067305928059 -0.99526490267806744
    outer loop
      vertex -0.64599698781967163 -0.50499802827835083 -0.086499698460102081
      vertex -0.21767899394035339 -0.28153198957443237 -0.096499599516391754
      vertex -0.61173897981643677 -0.53614199161529541 -0.090977996587753296
    endloop
  endfacet
  facet normal 0.025394529076267928 -0.060946841414092102 0.99781791946959941
    outer loop
      vertex 0.30102500319480896 -0.22790899872779846 -0.081423602998256683
      vertex 0.2193329930305481 -0.24999900162220001 -0.080693796277046204
      vertex -0.48099800944328308 -0.55499798059463501 -0.081499703228473663
    endloop
  endfacet
  facet normal 0.025389991704431798 -0.060936854153494008 0.99781864490854477
    outer loop
      vertex -0.61173897981643677 -0.53614199161529541 -0.077021397650241852
      vertex -0.59099799394607544 -0.55499798059463501 -0.078700698912143707
      vertex -0.48099800944328308 -0.55499798059463501 -0.081499703228473663
    endloop
  endfacet
  facet normal 0.025392236646551981 -0.060941360633699738 0.9978183125610588
    outer loop
      vertex 0.30102500319480896 -0.22790899872779846 -0.081423602998256683
      vertex -0.48099800944328308 -0.55499798059463501 -0.081499703228473663
      vertex 0.61099797487258911 -0.099999599158763885 -0.081499703228473663
    endloop
  endfacet
  facet normal 0.025390041785980991 -0.060937128239026618 0.99781862689573331
    outer loop
      vertex 0.61099797487258911 -0.099999599158763885 -0.081499703228473663
      vertex 0.49294298887252808 -0.119998998939991 -0.079717099666595459
      vertex 0.4039129912853241 -0.18494899570941925 -0.081418201327323914
    endloop
  endfacet
  facet normal 0.025314725782740858 -0.060753514435779782 0.997831736888663
    outer loop
      vertex 0.30102500319480896 -0.22790899872779846 -0.081423602998256683
      vertex 0.61099797487258911 -0.099999599158763885 -0.081499703228473663
      vertex 0.4039129912853241 -0.18494899570941925 -0.081418201327323914
    endloop
  endfacet
  facet normal 0.025388822214094432 -0.060933739958357672 0.99781886484535276
    outer loop
      vertex -0.48099800944328308 -0.55499798059463501 -0.081499703228473663
      vertex 0.2193329930305481 -0.24999900162220001 -0.080693796277046204
      vertex 0.11648499965667725 -0.24999900162220001 -0.07807689905166626
    endloop
  endfacet
  facet normal 0.02539013099633497 -0.060935901329166188 0.99781869955277491
    outer loop
      vertex -0.61173897981643677 -0.53614199161529541 -0.077021397650241852
      vertex -0.48099800944328308 -0.55499798059463501 -0.081499703228473663
      vertex -0.21767899394035339 -0.28153198957443237 -0.071499697864055634
    endloop
  endfacet
  facet normal 0.025389729639280528 -0.060935516098225923 0.99781873329111581
    outer loop
      vertex -0.48099800944328308 -0.55499798059463501 -0.081499703228473663
      vertex 0.11648499965667725 -0.24999900162220001 -0.07807689905166626
      vertex -0.21767899394035339 -0.28153198957443237 -0.071499697864055634
    endloop
  endfacet
  facet normal 0.025389710985231576 -0.060935315765187181 0.997818745999835
    outer loop
      vertex -0.21767899394035339 -0.28153198957443237 -0.071499697864055634
      vertex 0.11648499965667725 -0.24999900162220001 -0.07807689905166626
      vertex -0.10177099704742432 -0.23323699831962585 -0.071499697864055634
    endloop
  endfacet
  facet normal 0.025383783739409613 -0.06092102288998949 0.99781976954413387
    outer loop
      vertex 0.71795397996902466 -0.054990600794553757 -0.081472598016262054
      vertex 0.61099797487258911 -0.099999599158763885 -0.081499703228473663
      vertex 0.85099697113037109 7.7959001032468223e-08 -0.081499703228473663
    endloop
  endfacet
  facet normal 0.025870661057276079 -0.062099002930834389 0.99773464545010948
    outer loop
      vertex 0.71795397996902466 -0.054990600794553757 -0.081472598016262054
      vertex 0.85099697113037109 7.7959001032468223e-08 -0.081499703228473663
      vertex 0.71795302629470825 -0.054973401129245758 -0.081471502780914307
    endloop
  endfacet
  facet normal -0 0 1
    outer loop
      vertex -0.21767899394035339 -0.28153198957443237 -0.071499697864055634
      vertex -0.10177099704742432 -0.23323699831962585 -0.071499697864055634
      vertex -0.15652100741863251 -0.23059800267219543 -0.071499697864055634
    endloop
  endfacet
  facet normal 0.38461538095739373 0.92307692453532275 1.1018566553305709e-05
    outer loop
      vertex 0.61099797487258911 0.099999599158763885 -0.081499703228473663
      vertex 0.85099697113037109 7.8177599505124817e-08 -0.086499698460102081
      vertex -0.48099800944328308 0.55499798059463501 -0.086499698460102081
    endloop
  endfacet
  facet normal 0.38461542396895776 0.92307690667959974 -0
    outer loop
      vertex 0.61099797487258911 0.099999599158763885 -0.081499703228473663
      vertex -0.48099800944328308 0.55499798059463501 -0.086499698460102081
      vertex -0.48099800944328308 0.55499798059463501 -0.081499703228473663
    endloop
  endfacet
  facet normal 0.38461518610062051 0.92307700579138219 4.035668320921605e-08
    outer loop
      vertex 0.85099697113037109 7.8177599505124817e-08 -0.086499698460102081
      vertex 0.61099797487258911 0.099999599158763885 -0.081499703228473663
      vertex 0.85099697113037109 7.7959001032468223e-08 -0.081499703228473663
    endloop
  endfacet
  facet normal 0 0 1
    outer loop
      vertex -0.21767899394035339 0.28153198957443237 -0.071499697864055634
      vertex -0.15652100741863251 0.23059800267219543 -0.071499697864055634
      vertex -0.10177099704742432 0.23323699831962585 -0.071499697864055634
    endloop
  endfacet
  facet normal 0.02539013099633497 0.060935901329166188 0.99781869955277491
    outer loop
      vertex -0.21767899394035339 0.28153198957443237 -0.071499697864055634
      vertex -0.48099800944328308 0.55499798059463501 -0.081499703228473663
      vertex -0.61173897981643677 0.53614199161529541 -0.077021397650241852
    endloop
  endfacet
  facet normal 0.025392236646551981 0.060941360633699738 0.9978183125610588
    outer loop
      vertex -0.48099800944328308 0.55499798059463501 -0.081499703228473663
      vertex 0.30102500319480896 0.22790899872779846 -0.081423602998256683
      vertex 0.61099797487258911 0.099999599158763885 -0.081499703228473663
    endloop
  endfacet
  facet normal 0.025314725782740858 0.060753514435779782 0.997831736888663
    outer loop
      vertex 0.61099797487258911 0.099999599158763885 -0.081499703228473663
      vertex 0.30102500319480896 0.22790899872779846 -0.081423602998256683
      vertex 0.4039129912853241 0.18494899570941925 -0.081418201327323914
    endloop
  endfacet
  facet normal 0.025390041785980991 0.060937128239026618 0.99781862689573331
    outer loop
      vertex 0.61099797487258911 0.099999599158763885 -0.081499703228473663
      vertex 0.4039129912853241 0.18494899570941925 -0.081418201327323914
      vertex 0.49294298887252808 0.119998998939991 -0.079717099666595459
    endloop
  endfacet
  facet normal 0.025394529076267928 0.060946841414092102 0.99781791946959941
    outer loop
      vertex 0.30102500319480896 0.22790899872779846 -0.081423602998256683
      vertex -0.48099800944328308 0.55499798059463501 -0.081499703228473663
      vertex 0.2193329930305481 0.24999900162220001 -0.080693796277046204
    endloop
  endfacet
  facet normal 0.025389991704431798 0.060936854153494008 0.99781864490854477
    outer loop
      vertex -0.61173897981643677 0.53614199161529541 -0.077021397650241852
      vertex -0.48099800944328308 0.55499798059463501 -0.081499703228473663
      vertex -0.59099799394607544 0.55499798059463501 -0.078700698912143707
    endloop
  endfacet
  facet normal 0.025388822214094432 0.060933739958357672 0.99781886484535276
    outer loop
      vertex 0.2193329930305481 0.24999900162220001 -0.080693796277046204
      vertex -0.48099800944328308 0.55499798059463501 -0.081499703228473663
      vertex 0.11648499965667725 0.24999900162220001 -0.07807689905166626
    endloop
  endfacet
  facet normal 0.025389729639280528 0.060935516098225923 0.99781873329111581
    outer loop
      vertex -0.48099800944328308 0.55499798059463501 -0.081499703228473663
      vertex -0.21767899394035339 0.28153198957443237 -0.071499697864055634
      vertex 0.11648499965667725 0.24999900162220001 -0.07807689905166626
    endloop
  endfacet
  facet normal 0.025389710985231576 0.060935315765187181 0.997818745999835
    outer loop
      vertex 0.11648499965667725 0.24999900162220001 -0.07807689905166626
      vertex -0.21767899394035339 0.28153198957443237 -0.071499697864055634
      vertex -0.10177099704742432 0.23323699831962585 -0.071499697864055634
    endloop
  endfacet
  facet normal -0.75216451687463415 0.6589753709773587 2.8810698306955018e-08
    outer loop
      vertex -0.31099900603294373 0.22599899768829346 -0.086499698460102081
      vertex -0.50899797677993774 -4.0716898297432635e-08 -0.086499698460102081
      vertex -0.50899797677993774 -4.0935500322802909e-08 -0.081499703228473663
    endloop
  endfacet
  facet normal -0.7521645171905702 0.65897537061674505 -0
    outer loop
      vertex -0.31099900603294373 0.22599899768829346 -0.086499698460102081
      vertex -0.50899797677993774 -4.0935500322802909e-08 -0.081499703228473663
      vertex -0.31099900603294373 0.22599899768829346 -0.081499703228473663
    endloop
  endfacet
  facet normal -0.6399597174006072 -0.76840845396703739 -8.9311379249645928e-05
    outer loop
      vertex -0.31853899359703064 0.2322780042886734 -0.081499703228473663
      vertex -0.64599698781967163 0.50499802827835083 -0.086499698460102081
      vertex -0.31099900603294373 0.22599899768829346 -0.086499698460102081
    endloop
  endfacet
  facet normal -0.63992474841581315 -0.76843758130700401 -0
    outer loop
      vertex -0.31853899359703064 0.2322780042886734 -0.081499703228473663
      vertex -0.31099900603294373 0.22599899768829346 -0.086499698460102081
      vertex -0.31099900603294373 0.22599899768829346 -0.081499703228473663
    endloop
  endfacet
  facet normal -0.63996052515428381 -0.76840778642869911 -0
    outer loop
      vertex -0.64599698781967163 0.50499802827835083 -0.086499698460102081
      vertex -0.31853899359703064 0.2322780042886734 -0.081499703228473663
      vertex -0.64599698781967163 0.50499802827835083 -0.081499703228473663
    endloop
  endfacet
  facet normal -0.062204064161260682 -0.07468904820809498 0.99526488960456683
    outer loop
      vertex -0.21767899394035339 0.28153198957443237 -0.071499697864055634
      vertex -0.61173897981643677 0.53614199161529541 -0.077021397650241852
      vertex -0.64599698781967163 0.50499802827835083 -0.081499703228473663
    endloop
  endfacet
  facet normal -0.062204160543691996 -0.074689233837525293 0.99526486965019412
    outer loop
      vertex -0.21767899394035339 0.28153198957443237 -0.071499697864055634
      vertex -0.64599698781967163 0.50499802827835083 -0.081499703228473663
      vertex -0.31853899359703064 0.2322780042886734 -0.081499703228473663
    endloop
  endfacet
  facet normal -0.062203791284096512 -0.074689983257243048 0.99526483648871966
    outer loop
      vertex -0.21767899394035339 0.28153198957443237 -0.071499697864055634
      vertex -0.31853899359703064 0.2322780042886734 -0.081499703228473663
      vertex -0.15652100741863251 0.23059800267219543 -0.071499697864055634
    endloop
  endfacet
  facet normal 0.025390129857634593 0.060935520486276082 -0.99781872283941386
    outer loop
      vertex -0.48099800944328308 0.55499798059463501 -0.086499698460102081
      vertex -0.21767899394035339 0.28153198957443237 -0.096499599516391754
      vertex -0.61173897981643677 0.53614199161529541 -0.090977996587753296
    endloop
  endfacet
  facet normal 0.025390879775736012 0.060930390677600366 -0.99781901701465348
    outer loop
      vertex -0.48099800944328308 0.55499798059463501 -0.086499698460102081
      vertex -0.61173897981643677 0.53614199161529541 -0.090977996587753296
      vertex -0.59099799394607544 0.55499798059463501 -0.089298799633979797
    endloop
  endfacet
  facet normal 0.025389580031604592 0.060934992751663308 -0.99781876905787525
    outer loop
      vertex -0.21767899394035339 0.28153198957443237 -0.096499599516391754
      vertex -0.48099800944328308 0.55499798059463501 -0.086499698460102081
      vertex 0.85099697113037109 7.8177599505124817e-08 -0.086499698460102081
    endloop
  endfacet
  facet normal 0.025389600905526378 0.060935072178801786 -0.9978187636762611
    outer loop
      vertex -0.21767899394035339 0.28153198957443237 -0.096499599516391754
      vertex 0.85099697113037109 7.8177599505124817e-08 -0.086499698460102081
      vertex 0.45799800753593445 4.4257500775302105e-08 -0.096499599516391754
    endloop
  endfacet
  facet normal -0.062285130225714982 0.054568336947626361 -0.99656553179183149
    outer loop
      vertex -0.34899899363517761 -2.6292299892816118e-08 -0.096499599516391754
      vertex -0.50899797677993774 -4.0716898297432635e-08 -0.086499698460102081
      vertex -0.31099900603294373 0.22599899768829346 -0.086499698460102081
    endloop
  endfacet
  facet normal -0.06228472685749277 0.054568270401107108 -0.9965655606460212
    outer loop
      vertex -0.34899899363517761 -2.6292299892816118e-08 -0.096499599516391754
      vertex -0.31099900603294373 0.22599899768829346 -0.086499698460102081
      vertex -0.15099899470806122 0.22599899768829346 -0.096499599516391754
    endloop
  endfacet
  facet normal -0.062203436591409693 -0.07468938667423769 -0.99526490342744656
    outer loop
      vertex -0.21767899394035339 0.28153198957443237 -0.096499599516391754
      vertex -0.15099899470806122 0.22599899768829346 -0.096499599516391754
      vertex -0.31099900603294373 0.22599899768829346 -0.086499698460102081
    endloop
  endfacet
  facet normal -0.062203737282209202 -0.07468888477877933 -0.99526492229889629
    outer loop
      vertex -0.21767899394035339 0.28153198957443237 -0.096499599516391754
      vertex -0.31099900603294373 0.22599899768829346 -0.086499698460102081
      vertex -0.64599698781967163 0.50499802827835083 -0.086499698460102081
    endloop
  endfacet
  facet normal -0.062203832053881455 -0.074689067305928059 -0.99526490267806744
    outer loop
      vertex -0.21767899394035339 0.28153198957443237 -0.096499599516391754
      vertex -0.64599698781967163 0.50499802827835083 -0.086499698460102081
      vertex -0.61173897981643677 0.53614199161529541 -0.090977996587753296
    endloop
  endfacet
  facet normal -0.67268348357248431 0.73993035545839525 -0
    outer loop
      vertex -0.61173897981643677 0.53614199161529541 -0.090977996587753296
      vertex -0.61173897981643677 0.53614199161529541 -0.077021397650241852
      vertex -0.59099799394607544 0.55499798059463501 -0.089298799633979797
    endloop
  endfacet
  facet normal -0.67268348357248431 0.73993035545839525 0
    outer loop
      vertex -0.59099799394607544 0.55499798059463501 -0.089298799633979797
      vertex -0.61173897981643677 0.53614199161529541 -0.077021397650241852
      vertex -0.59099799394607544 0.55499798059463501 -0.078700698912143707
    endloop
  endfacet
  facet normal -0.67267657462428321 0.73993663644378427 0
    outer loop
      vertex -0.61173897981643677 0.53614199161529541 -0.077021397650241852
      vertex -0.61173897981643677 0.53614199161529541 -0.090977996587753296
      vertex -0.64599698781967163 0.50499802827835083 -0.081499703228473663
    endloop
  endfacet
  facet normal -0.67267657462428321 0.73993663644378427 -0
    outer loop
      vertex -0.64599698781967163 0.50499802827835083 -0.081499703228473663
      vertex -0.61173897981643677 0.53614199161529541 -0.090977996587753296
      vertex -0.64599698781967163 0.50499802827835083 -0.086499698460102081
    endloop
  endfacet
  facet normal 0 1 -0
    outer loop
      vertex -0.48099800944328308 0.55499798059463501 -0.081499703228473663
      vertex -0.48099800944328308 0.55499798059463501 -0.086499698460102081
      vertex -0.59099799394607544 0.55499798059463501 -0.089298799633979797
    endloop
  endfacet
  facet normal 0 1 0
    outer loop
      vertex -0.48099800944328308 0.55499798059463501 -0.081499703228473663
      vertex -0.59099799394607544 0.55499798059463501 -0.089298799633979797
      vertex -0.59099799394607544 0.55499798059463501 -0.078700698912143707
    endloop
  endfacet
  facet normal 0.025391030445645335 0.060938509982786944 0.99781851735372507
    outer loop
      vertex 0.85099697113037109 7.7959001032468223e-08 -0.081499703228473663
      vertex 0.61099797487258911 0.099999599158763885 -0.081499703228473663
      vertex 0.71795397996902466 0.054990798234939575 -0.081472598016262054
    endloop
  endfacet
  facet normal 0.025870679993004665 0.06209900185390417 0.99773464502614528
    outer loop
      vertex 0.85099697113037109 7.7959001032468223e-08 -0.081499703228473663
      vertex 0.71795397996902466 0.054990798234939575 -0.081472598016262054
      vertex 0.71795302629470825 0.054973598569631577 -0.081471502780914307
    endloop
  endfacet
  facet normal 0.52609199294417652 0.031634267972807703 0.84983909538797342
    outer loop
      vertex 0.45799800753593445 3.6476901499327141e-08 0.081499703228473663
      vertex 0.62599700689315796 5.5709900692590963e-08 -0.022499900311231613
      vertex 0.71795302629470825 0.054973598569631577 -0.081471502780914307
    endloop
  endfacet
  facet normal 0.52722663645461698 0.024852106047331231 0.84936119915955866
    outer loop
      vertex 0.45799800753593445 3.6476901499327141e-08 0.081499703228473663
      vertex 0.71795302629470825 0.054973598569631577 -0.081471502780914307
      vertex 0.71795397996902466 0.054990798234939575 -0.081472598016262054
    endloop
  endfacet
  facet normal -0.11406902568004128 0.093652676355593975 0.98904875187820762
    outer loop
      vertex 0.052737198770046234 0.11889500170946121 0.023501699790358543
      vertex -0.10100000351667404 0.16399900615215302 0.0014999900013208389
      vertex -0.27899900078773499 -2.4237900575485583e-08 -0.0034999900963157415
    endloop
  endfacet
  facet normal -0.11406943558179811 0.093653856154824064 0.98904859288782243
    outer loop
      vertex 0.052737198770046234 0.11889500170946121 0.023501699790358543
      vertex -0.27899900078773499 -2.4237900575485583e-08 -0.0034999900963157415
      vertex 0.45799800753593445 3.6476901499327141e-08 0.081499703228473663
    endloop
  endfacet
  facet normal 0.28396464635728319 0.67520520959153663 0.68078043785028952
    outer loop
      vertex 0.45799800753593445 3.6476901499327141e-08 0.081499703228473663
      vertex 0.71795397996902466 0.054990798234939575 -0.081472598016262054
      vertex 0.61099797487258911 0.099999599158763885 -0.081499703228473663
    endloop
  endfacet
  facet normal 0.14122275906763371 0.77923137122830977 0.61061821330105537
    outer loop
      vertex 0.43147200345993042 0.085933797061443329 -0.022028500214219093
      vertex 0.052737198770046234 0.11889500170946121 0.023501699790358543
      vertex 0.45799800753593445 3.6476901499327141e-08 0.081499703228473663
    endloop
  endfacet
  facet normal 0.14122549884763139 0.77923140367005694 0.61061753824274534
    outer loop
      vertex 0.43147200345993042 0.085933797061443329 -0.022028500214219093
      vertex 0.45799800753593445 3.6476901499327141e-08 0.081499703228473663
      vertex 0.61099797487258911 0.099999599158763885 -0.081499703228473663
    endloop
  endfacet
  facet normal 0.14122725595080918 0.77922762844851423 0.61062194952286875
    outer loop
      vertex 0.43147200345993042 0.085933797061443329 -0.022028500214219093
      vertex 0.61099797487258911 0.099999599158763885 -0.081499703228473663
      vertex 0.49294298887252808 0.119998998939991 -0.079717099666595459
    endloop
  endfacet
  facet normal 0.21621444461546824 0.522847539321318 0.82454943124428126
    outer loop
      vertex 0.62599700689315796 5.5709900692590963e-08 -0.022499900311231613
      vertex 0.85099697113037109 7.7959001032468223e-08 -0.081499703228473663
      vertex 0.71795302629470825 0.054973598569631577 -0.081471502780914307
    endloop
  endfacet
  facet normal 0.11551602183530833 -0.04345035580562466 0.99235483335332697
    outer loop
      vertex 0.052737198770046234 0.11889500170946121 0.023501699790358543
      vertex 0.43147200345993042 0.085933797061443329 -0.022028500214219093
      vertex 0.3269990086555481 0.13999900221824646 -0.0074999700300395489
    endloop
  endfacet
  facet normal 0.11551569408439745 -0.043445743768450014 0.99235507343319718
    outer loop
      vertex 0.052737198770046234 0.11889500170946121 0.023501699790358543
      vertex 0.3269990086555481 0.13999900221824646 -0.0074999700300395489
      vertex 0.15599900484085083 0.16499899327754974 0.01349989976733923
    endloop
  endfacet
  facet normal -0.045567710455452479 0.30820325408522764 0.95022857141591155
    outer loop
      vertex 0.052737198770046234 0.11889500170946121 0.023501699790358543
      vertex 0.15599900484085083 0.16499899327754974 0.01349989976733923
      vertex -0.10100000351667404 0.16399900615215302 0.0014999900013208389
    endloop
  endfacet
  facet normal -0.23838874622109413 0.22997245046056242 0.9435483441267325
    outer loop
      vertex -0.58772200345993042 -4.7817799497806845e-08 -0.081499703228473663
      vertex -0.45941999554634094 0.02056179940700531 -0.054095599800348282
      vertex -0.3658440113067627 0.22999800741672516 -0.081499703228473663
    endloop
  endfacet
  facet normal -0.23839270528179876 0.22997403785945428 0.94354695695500157
    outer loop
      vertex -0.3658440113067627 0.22999800741672516 -0.081499703228473663
      vertex -0.45941999554634094 0.02056179940700531 -0.054095599800348282
      vertex -0.35776400566101074 0.029767699539661407 -0.030655400827527046
    endloop
  endfacet
  facet normal -0.2383907886160091 0.22996752574850796 0.94354902840506738
    outer loop
      vertex -0.27899900078773499 -2.4237900575485583e-08 -0.0034999900963157415
      vertex -0.35776400566101074 0.029767699539661407 -0.030655400827527046
      vertex -0.46535301208496094 0.0026478299405425787 -0.051228299736976624
    endloop
  endfacet
  facet normal -0.23838943615789754 0.2299863161044608 0.94354479021031035
    outer loop
      vertex -0.27899900078773499 -2.4237900575485583e-08 -0.0034999900963157415
      vertex -0.46535301208496094 0.0026478299405425787 -0.051228299736976624
      vertex -0.49080100655555725 -4.0415198299115218e-08 -0.057012401521205902
    endloop
  endfacet
  facet normal -0.23838875469276502 0.2299723120714163 0.94354837571613692
    outer loop
      vertex -0.35776400566101074 0.029767699539661407 -0.030655400827527046
      vertex -0.27899900078773499 -2.4237900575485583e-08 -0.0034999900963157415
      vertex -0.10100000351667404 0.16399900615215302 0.0014999900013208389
    endloop
  endfacet
  facet normal -0.23838971843609538 0.22997433182059648 0.94354763994598034
    outer loop
      vertex -0.3658440113067627 0.22999800741672516 -0.081499703228473663
      vertex -0.35776400566101074 0.029767699539661407 -0.030655400827527046
      vertex -0.10100000351667404 0.16399900615215302 0.0014999900013208389
    endloop
  endfacet
  facet normal -0.23839156725622951 0.22999993005322086 0.94354093331271649
    outer loop
      vertex -0.45941999554634094 0.02056179940700531 -0.054095599800348282
      vertex -0.58772200345993042 -4.7817799497806845e-08 -0.081499703228473663
      vertex -0.48214098811149597 0.015079399570822716 -0.058499798178672791
    endloop
  endfacet
  facet normal -0.2383892123180559 0.22997223942904407 0.943548277801601
    outer loop
      vertex -0.48214098811149597 0.015079399570822716 -0.058499798178672791
      vertex -0.58772200345993042 -4.7817799497806845e-08 -0.081499703228473663
      vertex -0.49668800830841064 -4.0864801320594779e-08 -0.058499798178672791
    endloop
  endfacet
  facet normal 0.38793174397529417 0.55109191852649764 0.7387872896518124
    outer loop
      vertex 0.3269990086555481 0.13999900221824646 -0.0074999700300395489
      vertex 0.43147200345993042 0.085933797061443329 -0.022028500214219093
      vertex 0.49294298887252808 0.119998998939991 -0.079717099666595459
    endloop
  endfacet
  facet normal 0.38792990263754712 0.55110300142817881 0.7387799892095589
    outer loop
      vertex 0.3269990086555481 0.13999900221824646 -0.0074999700300395489
      vertex 0.49294298887252808 0.119998998939991 -0.079717099666595459
      vertex 0.4039129912853241 0.18494899570941925 -0.081418201327323914
    endloop
  endfacet
  facet normal 0.27763901181752665 0.66502472738259411 0.69329552940048123
    outer loop
      vertex 0.3269990086555481 0.13999900221824646 -0.0074999700300395489
      vertex 0.4039129912853241 0.18494899570941925 -0.081418201327323914
      vertex 0.30102500319480896 0.22790899872779846 -0.081423602998256683
    endloop
  endfacet
  facet normal 0.18601409324179194 0.6639793913709644 0.72424452013810747
    outer loop
      vertex 0.30102500319480896 0.22790899872779846 -0.081423602998256683
      vertex 0.2193329930305481 0.24999900162220001 -0.080693796277046204
      vertex 0.15599900484085083 0.16499899327754974 0.01349989976733923
    endloop
  endfacet
  facet normal 0.18601468824272271 0.66397871910009154 0.72424498364860224
    outer loop
      vertex 0.30102500319480896 0.22790899872779846 -0.081423602998256683
      vertex 0.15599900484085083 0.16499899327754974 0.01349989976733923
      vertex 0.3269990086555481 0.13999900221824646 -0.0074999700300395489
    endloop
  endfacet
  facet normal 0.18601384173924704 0.66397951983559544 0.7242444669587047
    outer loop
      vertex 0.15599900484085083 0.16499899327754974 0.01349989976733923
      vertex 0.2193329930305481 0.24999900162220001 -0.080693796277046204
      vertex 0.1938450038433075 0.24999900162220001 -0.074147500097751617
    endloop
  endfacet
  facet normal 0 1 -0
    outer loop
      vertex 0.1938450038433075 0.24999900162220001 -0.074147500097751617
      vertex 0.2193329930305481 0.24999900162220001 -0.080693796277046204
      vertex 0.11648499965667725 0.24999900162220001 -0.07807689905166626
    endloop
  endfacet
  facet normal -0.034942043977009958 0.72492626958110529 0.68793964650536854
    outer loop
      vertex -0.10177099704742432 0.23323699831962585 -0.071499697864055634
      vertex -0.15652100741863251 0.23059800267219543 -0.071499697864055634
      vertex -0.10100000351667404 0.16399900615215302 0.0014999900013208389
    endloop
  endfacet
  facet normal -0.034942277082964879 0.72492626243808334 0.68793964219240067
    outer loop
      vertex -0.10177099704742432 0.23323699831962585 -0.071499697864055634
      vertex -0.10100000351667404 0.16399900615215302 0.0014999900013208389
      vertex 0.15599900484085083 0.16499899327754974 0.01349989976733923
    endloop
  endfacet
  facet normal -0.03494303140580849 0.72492532152113776 0.68794059538135099
    outer loop
      vertex 0.15599900484085083 0.16499899327754974 0.01349989976733923
      vertex 0.1938450038433075 0.24999900162220001 -0.074147500097751617
      vertex 0.11648499965667725 0.24999900162220001 -0.07807689905166626
    endloop
  endfacet
  facet normal -0.03494281138954599 0.72492537505901433 0.68794055014059319
    outer loop
      vertex -0.10177099704742432 0.23323699831962585 -0.071499697864055634
      vertex 0.15599900484085083 0.16499899327754974 0.01349989976733923
      vertex 0.11648499965667725 0.24999900162220001 -0.07807689905166626
    endloop
  endfacet
  facet normal -0.034943842589326306 0.7249255273336711 0.68794033730047499
    outer loop
      vertex -0.10100000351667404 0.16399900615215302 0.0014999900013208389
      vertex -0.15652100741863251 0.23059800267219543 -0.071499697864055634
      vertex -0.31853899359703064 0.2322780042886734 -0.081499703228473663
    endloop
  endfacet
  facet normal -0.034940061136431805 0.72493091160501733 0.68793485558394352
    outer loop
      vertex -0.10100000351667404 0.16399900615215302 0.0014999900013208389
      vertex -0.31853899359703064 0.2322780042886734 -0.081499703228473663
      vertex -0.3658440113067627 0.22999800741672516 -0.081499703228473663
    endloop
  endfacet
  facet normal -0 0 1
    outer loop
      vertex -0.77099698781967163 0.12999899685382843 0.096499599516391754
      vertex -0.69099700450897217 0.13499900698661804 0.096499599516391754
      vertex -0.77099698781967163 0.13999900221824646 0.096499599516391754
    endloop
  endfacet
  facet normal 0 0 1
    outer loop
      vertex -0.77099698781967163 0.12999899685382843 0.096499599516391754
      vertex -0.77099698781967163 0.13999900221824646 0.096499599516391754
      vertex -0.85099697113037109 0.13499900698661804 0.096499599516391754
    endloop
  endfacet
  facet normal -0.050349780774152614 -0.80560370785387281 0.59031141397408748
    outer loop
      vertex -0.61582601070404053 0.0067240698263049126 -0.058499798178672791
      vertex -0.46535301208496094 0.0026478299405425787 -0.051228299736976624
      vertex -0.77099698781967163 0.12999899685382843 0.096499599516391754
    endloop
  endfacet
  facet normal -0.050350359621202531 -0.80560395327370993 0.59031102967485327
    outer loop
      vertex -0.61582601070404053 0.0067240698263049126 -0.058499798178672791
      vertex -0.77099698781967163 0.12999899685382843 0.096499599516391754
      vertex -0.85099697113037109 0.13499900698661804 0.096499599516391754
    endloop
  endfacet
  facet normal -0.050349729116348635 -0.80560504268981459 0.59030959671231198
    outer loop
      vertex -0.46535301208496094 0.0026478299405425787 -0.051228299736976624
      vertex -0.61582601070404053 0.0067240698263049126 -0.058499798178672791
      vertex -0.50823897123336792 -4.1874500311678275e-08 -0.058499798178672791
    endloop
  endfacet
  facet normal -0.050352247854762493 -0.80559632592097807 0.59032127760956898
    outer loop
      vertex -0.46535301208496094 0.0026478299405425787 -0.051228299736976624
      vertex -0.50823897123336792 -4.1874500311678275e-08 -0.058499798178672791
      vertex -0.49080100655555725 -4.0415198299115218e-08 -0.057012401521205902
    endloop
  endfacet
  facet normal 0.044341581660545699 -0.70946372079341002 0.70334561419959929
    outer loop
      vertex -0.69099700450897217 0.13499900698661804 0.096499599516391754
      vertex -0.77099698781967163 0.12999899685382843 0.096499599516391754
      vertex -0.46535301208496094 0.0026478299405425787 -0.051228299736976624
    endloop
  endfacet
  facet normal 0.044341845968260254 -0.70946350007921921 0.70334582017061187
    outer loop
      vertex -0.69099700450897217 0.13499900698661804 0.096499599516391754
      vertex -0.46535301208496094 0.0026478299405425787 -0.051228299736976624
      vertex -0.35776400566101074 0.029767699539661407 -0.030655400827527046
    endloop
  endfacet
  facet normal 0.052001672493288444 0.8320273798014497 -0.552291829849614
    outer loop
      vertex -0.45941999554634094 0.02056179940700531 -0.054095599800348282
      vertex -0.77099698781967163 0.13999900221824646 0.096499599516391754
      vertex -0.69099700450897217 0.13499900698661804 0.096499599516391754
    endloop
  endfacet
  facet normal 0.052001581157507047 0.83202732162487381 -0.5522919260924043
    outer loop
      vertex -0.45941999554634094 0.02056179940700531 -0.054095599800348282
      vertex -0.69099700450897217 0.13499900698661804 0.096499599516391754
      vertex -0.35776400566101074 0.029767699539661407 -0.030655400827527046
    endloop
  endfacet
  facet normal -0.045892028696596102 0.73427300622167302 -0.67730131701946183
    outer loop
      vertex -0.61582601070404053 0.0067240698263049126 -0.058499798178672791
      vertex -0.85099697113037109 0.13499900698661804 0.096499599516391754
      vertex -0.77099698781967163 0.13999900221824646 0.096499599516391754
    endloop
  endfacet
  facet normal -0.045891503274315272 0.73427329511932904 -0.6773010394217821
    outer loop
      vertex -0.61582601070404053 0.0067240698263049126 -0.058499798178672791
      vertex -0.77099698781967163 0.13999900221824646 0.096499599516391754
      vertex -0.45941999554634094 0.02056179940700531 -0.054095599800348282
    endloop
  endfacet
  facet normal -0.045892900159015974 0.73428501114763745 -0.67728824300950963
    outer loop
      vertex -0.61582601070404053 0.0067240698263049126 -0.058499798178672791
      vertex -0.45941999554634094 0.02056179940700531 -0.054095599800348282
      vertex -0.48214098811149597 0.015079399570822716 -0.058499798178672791
    endloop
  endfacet
endsolid OBJECT
